<?xml version="1.0" encoding="UTF-8"?><!DOCTYPE svg PUBLIC "-//W3C//DTD SVG 1.1//EN" "http://www.w3.org/Graphics/SVG/1.1/DTD/svg11.dtd"><svg xmlns="http://www.w3.org/2000/svg" xmlns:xlink="http://www.w3.org/1999/xlink"><defs>
<linearGradient id="paint0_linear" x1="1.61044" y1="23.4032" x2="24.8453" y2="3.29372" gradientUnits="userSpaceOnUse">
<stop stop-color="#8E7F42"/>
<stop offset="0.5" stop-color="#FF543E"/>
<stop offset="1" stop-color="#C837AB"/>
</linearGradient>
<clipPath id="clip0">
<rect width="25" height="25" fill="white"/>
</clipPath>

<clipPath id="clip0">
<rect width="22" height="22" fill="white"/>
</clipPath>

<clipPath id="clip0">
<rect width="25" height="25" fill="white"/>
</clipPath>
</defs><symbol id="icon-instagram" viewBox="0 0 25 25">
<g clip-path="url(#clip0)">
<path d="M1.5625 1.70104C-0.402079 3.74166 4.1158e-06 5.90937 4.1158e-06 12.4948C4.1158e-06 17.9635 -0.954163 23.4458 4.03959 24.7365C5.59896 25.1375 19.4156 25.1375 20.9729 24.7344C23.0521 24.1979 24.7438 22.5115 24.975 19.5708C25.0073 19.1604 25.0073 5.83646 24.974 5.41771C24.7281 2.28541 22.8 0.480206 20.2594 0.114581C19.6771 0.0302058 19.5604 0.0052058 16.5729 -2.53627e-06C5.97605 0.0052058 3.65313 -0.466669 1.5625 1.70104V1.70104Z" fill="url(#paint0_linear)"/>
<path d="M12.4979 3.2698C8.71563 3.2698 5.12397 2.93334 3.75209 6.45417C3.18543 7.90834 3.26772 9.79688 3.26772 12.501C3.26772 14.874 3.19168 17.1042 3.75209 18.5469C5.12084 22.0698 8.74168 21.7323 12.4958 21.7323C16.1177 21.7323 19.8521 22.1094 21.2406 18.5469C21.8083 17.0781 21.725 15.2177 21.725 12.501C21.725 8.8948 21.924 6.56667 20.175 4.81876C18.4042 3.04792 16.0094 3.2698 12.4938 3.2698H12.4979ZM11.6708 4.93334C19.5604 4.92084 20.5646 4.04376 20.0104 16.2281C19.8135 20.5375 16.5323 20.0646 12.499 20.0646C5.1448 20.0646 4.93334 19.8542 4.93334 12.4969C4.93334 5.05417 5.51668 4.93751 11.6708 4.93126V4.93334ZM17.425 6.46563C16.8135 6.46563 16.3177 6.96147 16.3177 7.57292C16.3177 8.18438 16.8135 8.68022 17.425 8.68022C18.0365 8.68022 18.5323 8.18438 18.5323 7.57292C18.5323 6.96147 18.0365 6.46563 17.425 6.46563ZM12.4979 7.76042C9.88022 7.76042 7.75834 9.88334 7.75834 12.501C7.75834 15.1188 9.88022 17.2406 12.4979 17.2406C15.1156 17.2406 17.2365 15.1188 17.2365 12.501C17.2365 9.88334 15.1156 7.76042 12.4979 7.76042ZM12.4979 9.42397C16.5656 9.42397 16.5708 15.5781 12.4979 15.5781C8.43126 15.5781 8.42501 9.42397 12.4979 9.42397Z" fill="white"/>
</g>

</symbol><symbol id="icon-photo-add" viewBox="0 0 22 22">
<g clip-path="url(#clip0)">
<path d="M12.9443 9.74291C14.0183 10.8169 14.0183 12.5581 12.9443 13.6321C11.8703 14.7061 10.1291 14.7061 9.05512 13.6321C7.98114 12.5581 7.98114 10.8169 9.05512 9.74291C10.1291 8.66893 11.8703 8.66893 12.9443 9.74291Z" fill="#989898"/>
<path d="M19.25 4.12481H17.3499L15.9742 1.37471H6.02455L4.65015 4.12616L2.75275 4.12953C1.24009 4.13224 0.00869272 5.36494 0.00738656 6.87828L0 17.8746C0 19.3913 1.23337 20.6253 2.7501 20.6253H19.25C20.7667 20.6253 22.0001 19.392 22.0001 17.8752V6.87486C22 5.35818 20.7666 4.12481 19.25 4.12481ZM10.9997 17.1877C7.9669 17.1877 5.49947 14.7203 5.49947 11.6875C5.49947 8.65475 7.9669 6.18732 10.9997 6.18732C14.0324 6.18732 16.4999 8.65475 16.4999 11.6875C16.4999 14.7203 14.0324 17.1877 10.9997 17.1877Z" fill="#989898"/>
</g>

</symbol><symbol id="icon-pinterest" viewBox="0 0 25 25">
<g clip-path="url(#clip0)">
<path d="M12.5 25C19.4035 25 24.9998 19.4037 24.9998 12.5002C24.9998 5.59679 19.4035 0.00044632 12.5 0.00044632C5.59659 0.00044632 0.000244141 5.59679 0.000244141 12.5002C0.000244141 19.4037 5.59659 25 12.5 25Z" fill="#CB2027"/>
<path d="M13.509 16.7387C12.564 16.6656 12.1669 16.197 11.4258 15.7472C11.0185 17.8842 10.5207 19.9328 9.04631 21.0031C8.59064 17.773 9.71432 15.347 10.2362 12.7718C9.34667 11.2745 10.3431 8.26062 12.2193 9.00328C14.5284 9.9164 10.2201 14.5709 13.1123 15.1522C16.1318 15.7592 17.3644 9.91306 15.4918 8.01151C12.7863 5.26614 7.61669 7.94912 8.2524 11.8792C8.40726 12.84 9.40015 13.1317 8.64902 14.4575C6.91748 14.074 6.40098 12.7083 6.46738 10.8877C6.57456 7.90745 9.14524 5.82074 11.7237 5.53196C14.9847 5.16698 18.0454 6.7294 18.4678 9.79675C18.9431 13.2587 16.9956 17.0079 13.509 16.7387Z" fill="#F1F2F2"/>
</g>

</symbol><symbol id="icon-send" viewBox="0 0 17 17">
<path d="M16.6479 7.94818L0.862529 0.662644C0.611178 0.548504 0.311256 0.616502 0.136404 0.83264C-0.0396636 1.04878 -0.0457348 1.35598 0.121832 1.57819L5.31278 8.49945L0.121832 15.4207C-0.0457348 15.6429 -0.0396636 15.9513 0.135189 16.1663C0.252972 16.3132 0.429039 16.3921 0.607535 16.3921C0.693747 16.3921 0.779959 16.3739 0.861314 16.3363L16.6466 9.05072C16.8628 8.95115 17 8.73623 17 8.49945C17 8.26267 16.8628 8.04775 16.6479 7.94818Z" fill="white"/>
</symbol><symbol id="icon-share" viewBox="0 0 20 20">
<path d="M15.8594 12.9688C14.7017 12.9688 13.6731 13.5313 13.0321 14.3973L7.51375 11.5772C7.60633 11.2627 7.65625 10.93 7.65625 10.5859C7.65625 10.1199 7.56488 9.67484 7.39945 9.26746L13.183 5.79254C13.8284 6.54996 14.7887 7.03125 15.8594 7.03125C17.7979 7.03125 19.375 5.45414 19.375 3.51562C19.375 1.57711 17.7979 0 15.8594 0C13.9209 0 12.3438 1.57711 12.3438 3.51562C12.3438 3.96367 12.4282 4.3923 12.5816 4.78672L6.78359 8.27031C6.13875 7.53523 5.19301 7.07031 4.14062 7.07031C2.20211 7.07031 0.625 8.64742 0.625 10.5859C0.625 12.5245 2.20211 14.1016 4.14062 14.1016C5.31727 14.1016 6.36063 13.5205 6.9991 12.6302L12.5014 15.4421C12.399 15.7716 12.3438 16.1216 12.3438 16.4844C12.3438 18.4229 13.9209 20 15.8594 20C17.7979 20 19.375 18.4229 19.375 16.4844C19.375 14.5459 17.7979 12.9688 15.8594 12.9688ZM15.8594 1.17188C17.1517 1.17188 18.2031 2.22328 18.2031 3.51562C18.2031 4.80797 17.1517 5.85938 15.8594 5.85938C14.567 5.85938 13.5156 4.80797 13.5156 3.51562C13.5156 2.22328 14.567 1.17188 15.8594 1.17188ZM4.14062 12.9297C2.84828 12.9297 1.79688 11.8783 1.79688 10.5859C1.79688 9.29359 2.84828 8.24219 4.14062 8.24219C5.43297 8.24219 6.48438 9.29359 6.48438 10.5859C6.48438 11.8783 5.43297 12.9297 4.14062 12.9297ZM15.8594 18.8281C14.567 18.8281 13.5156 17.7767 13.5156 16.4844C13.5156 15.192 14.567 14.1406 15.8594 14.1406C17.1517 14.1406 18.2031 15.192 18.2031 16.4844C18.2031 17.7767 17.1517 18.8281 15.8594 18.8281Z" fill="white"/>
</symbol><symbol id="icon-vk" viewBox="0 0 25 25">
<path d="M12.5 25C19.4036 25 25 19.4036 25 12.5C25 5.59644 19.4036 0 12.5 0C5.59644 0 0 5.59644 0 12.5C0 19.4036 5.59644 25 12.5 25Z" fill="#4D76A1"/>
<path fill-rule="evenodd" clip-rule="evenodd" d="M12.0278 17.9824H13.0089C13.0089 17.9824 13.3053 17.9498 13.4566 17.7867C13.5959 17.637 13.5914 17.3558 13.5914 17.3558C13.5914 17.3558 13.5722 16.0393 14.1832 15.8455C14.7855 15.6545 15.5589 17.1178 16.3787 17.6804C16.9986 18.1063 17.4697 18.0129 17.4697 18.0129L19.6616 17.9824C19.6616 17.9824 20.8082 17.9117 20.2645 17.0102C20.22 16.9364 19.9479 16.3433 18.6348 15.1244C17.2604 13.8488 17.4445 14.0551 19.1001 11.8485C20.1084 10.5046 20.5114 9.68416 20.3855 9.33277C20.2654 8.99809 19.5239 9.08655 19.5239 9.08655L17.0559 9.10192C17.0559 9.10192 16.8729 9.07697 16.7372 9.15808C16.6047 9.23762 16.5193 9.42301 16.5193 9.42301C16.5193 9.42301 16.1287 10.4629 15.6077 11.3473C14.5088 13.2135 14.0694 13.312 13.8898 13.1961C13.472 12.926 13.5763 12.1112 13.5763 11.5323C13.5763 9.72383 13.8505 8.96979 13.0421 8.7746C12.7739 8.70975 12.5764 8.66697 11.8904 8.66006C11.0098 8.65093 10.2644 8.66274 9.84239 8.86952C9.56163 9.007 9.34504 9.31338 9.47695 9.33099C9.64006 9.35282 10.0095 9.43059 10.2054 9.69731C10.4583 10.0414 10.4494 10.8141 10.4494 10.8141C10.4494 10.8141 10.5946 12.943 10.11 13.2075C9.77732 13.3888 9.32098 13.0185 8.34122 11.3255C7.83919 10.4583 7.46017 9.49967 7.46017 9.49967C7.46017 9.49967 7.38708 9.32051 7.25673 9.2247C7.09853 9.10861 6.87748 9.07162 6.87748 9.07162L4.53226 9.08699C4.53226 9.08699 4.1802 9.0968 4.05096 9.24988C3.93598 9.38603 4.04182 9.66768 4.04182 9.66768C4.04182 9.66768 5.87789 13.9633 7.95685 16.128C9.86311 18.1127 12.0278 17.9824 12.0278 17.9824Z" fill="white"/>
</symbol></svg>